<?xml version="1.0" encoding="utf-8"?>
<!-- Generator: Adobe Illustrator 24.1.2, SVG Export Plug-In . SVG Version: 6.00 Build 0)  -->
<svg version="1.1" id="Layer_1" xmlns="http://www.w3.org/2000/svg" xmlns:xlink="http://www.w3.org/1999/xlink" x="0px" y="0px"
	 viewBox="0 0 700 700" style="enable-background:new 0 0 700 700;" xml:space="preserve">
<path d="M499.4,700c-11.2,0-21.9-4.3-29.9-12.1L182,410.8c-16.4-15.7-25.6-37.5-25.6-60.2c0-22.7,9.3-44.5,25.6-60.2L469.4,13.2
	c8.1-8.4,19.3-13.2,31-13.2c11.7,0,22.9,4.7,31.1,13.2c8.1,8.4,12.5,19.8,12.1,31.5s-5.6,22.7-14.3,30.5L243.8,350.6L529.3,626
	c8.3,8,13.1,19,13.2,30.5c0.1,11.5-4.3,22.6-12.4,30.8C521.9,695.4,510.9,700,499.4,700L499.4,700z"/>
</svg>
